<svg width="1440" height="960" viewBox="0 0 1440 960" fill="none" xmlns="http://www.w3.org/2000/svg">
<g clip-path="url(#clip0_1_195)">
<path d="M1.14479e-05 0L0 960L1440 960L1440 1.71718e-05L1.14479e-05 0Z" fill="url(#paint0_linear_1_195)"/>
<path d="M38.9189 921.081L38.919 38.9189L1401.08 38.9189L1401.08 921.081L38.9189 921.081Z" stroke="white" stroke-width="5"/>
<path d="M720 921.081L720 38.9189" stroke="white" stroke-width="5"/>
<path d="M838.702 480C838.702 414.442 785.557 361.297 720 361.297C654.442 361.297 601.297 414.442 601.297 480C601.297 545.558 654.442 598.703 720 598.703C785.557 598.703 838.702 545.558 838.702 480Z" stroke="white" stroke-width="5"/>
<path d="M729.73 480C729.73 474.626 725.374 470.27 720 470.27C714.627 470.27 710.271 474.626 710.271 480C710.271 485.374 714.627 489.73 720 489.73C725.374 489.73 729.73 485.374 729.73 480Z" fill="white"/>
<path d="M38.9189 741.535L252.973 741.535L252.973 218.465L38.919 218.465" stroke="white" stroke-width="5"/>
<path d="M38.9189 598.832L110.27 598.832L110.27 361.168L38.9189 361.168" stroke="white" stroke-width="5"/>
<path d="M190.573 480C190.573 474.626 186.217 470.27 180.843 470.27C175.469 470.27 171.113 474.626 171.113 480C171.113 485.374 175.469 489.73 180.843 489.73C186.217 489.73 190.573 485.374 190.573 480Z" fill="white"/>
<path d="M252.973 574.274C267.455 563.193 279.191 548.925 287.267 532.575C295.344 516.226 299.546 498.236 299.546 480C299.546 461.764 295.344 443.774 287.267 427.425C279.191 411.075 267.455 396.807 252.973 385.726" stroke="white" stroke-width="5"/>
<path d="M1401.08 218.465L1187.03 218.465L1187.03 741.535L1401.08 741.535" stroke="white" stroke-width="5"/>
<path d="M1401.08 361.168L1329.73 361.168L1329.73 598.832L1401.08 598.832" stroke="white" stroke-width="5"/>
<path d="M1249.43 480C1249.43 485.374 1253.78 489.73 1259.16 489.73C1264.53 489.73 1268.89 485.374 1268.89 480C1268.89 474.626 1264.53 470.27 1259.16 470.27C1253.78 470.27 1249.43 474.626 1249.43 480Z" fill="white"/>
<path d="M1187.03 385.726C1172.54 396.807 1160.81 411.075 1152.73 427.425C1144.66 443.774 1140.45 461.764 1140.45 480C1140.45 498.236 1144.66 516.226 1152.73 532.575C1160.81 548.925 1172.54 563.193 1187.03 574.274" stroke="white" stroke-width="5"/>
<path d="M64.8649 921.081C64.8649 914.2 62.1313 907.6 57.2655 902.735C52.3997 897.869 45.8002 895.135 38.9189 895.135M38.919 64.8648C45.8002 64.8648 52.3997 62.1313 57.2655 57.2655C62.1313 52.3997 64.8649 45.8002 64.8649 38.9189M1375.14 38.9189C1375.14 45.8002 1377.87 52.3997 1382.73 57.2655C1387.6 62.1313 1394.2 64.8649 1401.08 64.8649M1401.08 895.135C1394.2 895.135 1387.6 897.869 1382.73 902.735C1377.87 907.6 1375.14 914.2 1375.14 921.081" stroke="white" stroke-width="5"/>
</g>
<defs>
<linearGradient id="paint0_linear_1_195" x1="5.72394e-06" y1="480" x2="1440" y2="480" gradientUnits="userSpaceOnUse">
<stop stop-color="#1A551A"/>
<stop offset="0.5" stop-color="#3C8C3C"/>
<stop offset="1" stop-color="#1A551A"/>
</linearGradient>
<clipPath id="clip0_1_195">
<rect width="960" height="1440" fill="white" transform="translate(0 960) rotate(-90)"/>
</clipPath>
</defs>
</svg>
